# xmcd CD database file
#
# Track frame offsets:
#	150
#	13800
#	31300
#	43913
#	57006
#	74534
#	90344
#	107143
#	123097
#	143083
#	161600
#	180962
#	197665
#	212899
#	231272
#	246477
#	262489
#	278337
#	296528
#	312348
#
# Disc length: 4368 seconds
#
# Revision: 4
# Processed by: cddbd v1.5.2PL0 Copyright (c) Steve Scherf et al.
# Submitted via: CdAid (MTCDDB.DLL V2003.12.21)
#
DISCID=26110e14
DTITLE=Various Artist - 101 80's Hits [Disc 5]
DYEAR=2007
DGENRE=Slow Rock
TTITLE0=Red Red Wine - UB40
TTITLE1=Karma Chameleon - Culture Club
TTITLE2=Baggy Trousers - Madness
TTITLE3=A Message To You Rudy - The Specials
TTITLE4=Don't Worry Be Happy - Bobby McFerrin
TTITLE5=Thinking Of You - The Colourfield
TTITLE6=Lavender - Marillion
TTITLE7=Missing You - John Waite
TTITLE8=(I Just) Died In Your Arms - Cutting Crew
TTITLE9=Rush Hour - Jane Wiedlin
TTITLE10=Leave A Light On - Belinda Carlisle
TTITLE11=I Want That Man - Deborah Harry
TTITLE12=Respectable - Mel and Kim
TTITLE13=Good Life - Inner City
TTITLE14=Solid - Ashford and Simpson
TTITLE15=Keep On Movin' - Soul To Soul Featuring Caron Wheeler
TTITLE16=If Only I Could - Sydney Youngblood
TTITLE17=The King Of Wishful Thinking - Go West
TTITLE18=Never Ending Story - Limahl
TTITLE19=I Should Be So Lucky - Kylie Minogue
EXTD=ID3G:  17 YEAR: 2007
EXTT0=
EXTT1=
EXTT2=
EXTT3=
EXTT4=
EXTT5=
EXTT6=
EXTT7=
EXTT8=
EXTT9=
EXTT10=
EXTT11=
EXTT12=
EXTT13=
EXTT14=
EXTT15=
EXTT16=
EXTT17=
EXTT18=
EXTT19=
PLAYORDER=
